<?xml version="1.0" standalone="no"?>
<!DOCTYPE svg PUBLIC "-//W3C//DTD SVG 20010904//EN"
 "http://www.w3.org/TR/2001/REC-SVG-20010904/DTD/svg10.dtd">
<svg version="1.0" xmlns="http://www.w3.org/2000/svg"
 width="300.000000pt" height="300.000000pt" viewBox="0 0 300.000000 300.000000"
 preserveAspectRatio="xMidYMid meet" width="20" height="20">
<g transform="translate(0.000000,300.000000) scale(0.100000,-0.100000)"
fill="#e6b30e" stroke="none" >
<path d="M1402 2878 c-7 -7 -12 -43 -12 -90 l0 -78 -568 0 c-428 0 -571 -3
-580 -12 -9 -9 -12 -197 -12 -785 l0 -773 -48 0 c-26 0 -53 -5 -60 -12 -17
-17 -17 -249 0 -266 9 -9 132 -12 490 -12 263 0 478 -3 478 -6 0 -4 -67 -139
-150 -302 -82 -163 -150 -306 -150 -319 0 -91 117 -145 182 -86 11 10 99 174
194 366 l174 347 160 0 160 0 174 -347 c95 -192 183 -356 194 -366 65 -59 182
-5 182 86 0 13 -67 156 -150 319 -82 163 -150 298 -150 302 0 3 215 6 478 6
358 0 481 3 490 12 17 17 17 249 0 266 -7 7 -34 12 -60 12 l-48 0 0 773 c0
588 -3 776 -12 785 -9 9 -152 12 -580 12 l-568 0 0 78 c0 47 -5 83 -12 90 -16
16 -180 16 -196 0z m128 -118 c0 -49 -1 -50 -30 -50 -29 0 -30 1 -30 50 0 49
1 50 30 50 29 0 30 -1 30 -50z m-80 -65 c10 -12 9 -16 -4 -21 -9 -3 -23 -3
-32 0 -13 5 -14 9 -4 21 7 8 16 15 20 15 4 0 13 -7 20 -15z m140 0 c10 -12 9
-16 -4 -21 -9 -3 -23 -3 -32 0 -13 5 -14 9 -4 21 7 8 16 15 20 15 4 0 13 -7
20 -15z m1100 -810 l0 -745 -1190 0 -1190 0 0 745 0 745 1190 0 1190 0 0 -745z
m-2400 -749 c0 -2 3 -11 6 -20 5 -13 -1 -16 -25 -16 -33 0 -39 8 -19 28 11 11
38 17 38 8z m2458 -8 c19 -19 14 -28 -18 -28 -41 0 -40 33 1 39 3 1 10 -4 17
-11z m62 -133 l0 -65 -1310 0 -1310 0 0 65 0 65 1310 0 1310 0 0 -65z m-1650
-120 c0 -8 -8 -19 -18 -24 -14 -7 -21 -5 -30 10 -17 27 -16 29 18 29 20 0 30
-5 30 -15z m149 -11 c-22 -23 -24 -24 -36 -8 -20 28 -16 34 24 34 l36 0 -24
-26z m431 19 c0 -5 -7 -16 -14 -25 -12 -17 -14 -17 -30 0 -23 26 -20 32 14 32
17 0 30 -3 30 -7z m160 -1 c0 -12 -23 -32 -37 -32 -7 0 -17 9 -23 20 -10 18
-8 20 25 20 19 0 35 -4 35 -8z m-652 -39 c-74 -162 -332 -653 -342 -653 -7 0
-19 6 -25 14 -10 12 19 76 146 330 l158 316 33 0 c19 0 32 -3 30 -7z m725
-309 c127 -254 156 -318 146 -330 -6 -8 -18 -14 -25 -14 -10 0 -268 491 -342
653 -2 4 11 7 30 7 l33 0 158 -316z"/>
<path d="M2568 1979 c-16 -9 -18 -28 -18 -178 0 -180 5 -200 49 -186 29 9 32
30 29 199 -3 136 -5 150 -23 162 -14 9 -25 10 -37 3z"/>
</g>
</svg>
